<?xml version="1.0" encoding="UTF-8"?>
<!DOCTYPE svg PUBLIC "-//W3C//DTD SVG 1.1//EN" "http://www.w3.org/Graphics/SVG/1.1/DTD/svg11.dtd">
<!-- Creator: CorelDRAW X7 -->
<svg xmlns="http://www.w3.org/2000/svg" xml:space="preserve" width="93.8106mm" height="32.1732mm" version="1.1" style="shape-rendering:geometricPrecision; text-rendering:geometricPrecision; image-rendering:optimizeQuality; fill-rule:evenodd; clip-rule:evenodd"
viewBox="0 0 9381 3217"
 xmlns:xlink="http://www.w3.org/1999/xlink">
 <defs>
  <style type="text/css">
   <![CDATA[
    .str0 {stroke:#FEFEFE;stroke-width:70.56}
    .fil0 {fill:none}
    .fil1 {fill:#FEFEFE}
    .fil2 {fill:#FEFEFE;fill-rule:nonzero}
   ]]>
  </style>
 </defs>
 <g id="Camada_x0020_1">
  <metadata id="CorelCorpID_0Corel-Layer"/>
  <path class="fil0 str0" d="M2765 2319c18,-26 51,-94 76,-165 26,-71 45,-146 61,-238 17,-91 30,-198 31,-316 2,-117 -9,-245 -54,-388 -46,-142 -127,-299 -220,-431 -93,-132 -199,-237 -329,-324 -130,-87 -283,-154 -429,-192 -146,-38 -284,-46 -412,-41 -127,5 -244,23 -363,63 -118,40 -239,102 -331,162 -93,61 -158,120 -221,186 -63,67 -125,142 -173,219 -47,76 -81,154 -111,225 -31,70 -57,133 -75,224 -19,90 -29,208 -33,303 -5,94 -4,166 7,240 10,73 29,148 59,229 31,80 72,165 114,237 42,72 84,131 136,190 51,60 111,120 173,174 62,55 125,103 190,142 64,39 131,69 195,92 65,24 128,41 202,55 75,13 160,22 235,26 75,4 139,5 188,2 48,-2 79,-7 109,-8 29,-1 56,1 63,-20 8,-21 -5,-65 -23,-144 -18,-79 -43,-193 -71,-286 -28,-94 -60,-167 -92,-230 -32,-62 -63,-114 -98,-147 -35,-33 -75,-48 -127,-53 -52,-6 -117,-3 -185,-3 -69,1 -141,0 -205,-18 -63,-18 -119,-51 -183,-95 -64,-43 -136,-96 -185,-139 -48,-44 -73,-78 -87,-109 -14,-32 -17,-61 11,-86 28,-25 87,-46 154,-71 68,-25 144,-54 210,-78 67,-23 122,-41 172,-61 50,-21 94,-44 130,-67 35,-22 61,-42 84,-72 23,-30 42,-70 63,-97 22,-27 45,-42 74,-53 29,-11 62,-19 130,-22 68,-4 169,-4 254,-1 86,3 155,9 213,24 58,16 105,41 136,63 31,22 45,41 46,70 1,30 -12,69 -38,120 -26,51 -64,113 -110,183 -45,71 -98,150 -148,226 -50,75 -97,147 -126,212 -29,65 -39,122 -44,171 -5,48 -5,88 14,116 19,29 57,47 109,56 51,8 116,8 186,-5 71,-13 147,-39 208,-75 61,-35 107,-79 142,-117 34,-39 58,-71 80,-92 22,-22 42,-32 62,-23 20,9 40,37 56,70 17,33 30,71 41,103 11,31 20,57 27,77 8,20 13,34 32,7z"/>
  <path class="fil1" d="M1582 1434c47,0 84,38 84,84 0,46 -37,84 -84,84 -46,0 -83,-38 -83,-84 0,-46 37,-84 83,-84z"/>
  <path class="fil2" d="M3489 771l0 1042 39 0 0 -504 397 0 0 -38 -397 0 0 -461 494 0 0 -39 -533 0zm987 1062c-96,0 -179,-35 -247,-103 -69,-68 -103,-151 -103,-248l0 -712 39 0 0 712c0,86 30,159 91,220 61,61 135,92 220,92 87,0 160,-31 220,-92 61,-61 92,-134 92,-220l0 -712 39 0 0 712c0,97 -34,180 -102,248 -69,68 -152,103 -249,103zm521 -1023l327 0c64,0 119,23 164,68 46,46 69,101 69,165 0,64 -23,119 -69,164 -45,45 -100,68 -164,68l-327 0 0 -465zm618 1003l-260 -500c68,-8 125,-37 171,-89 47,-51 70,-112 70,-181 0,-75 -27,-139 -80,-193 -53,-53 -117,-79 -192,-79l-366 0 0 1042 39 0 0 -499 315 0 259 499 44 0zm585 10c-147,0 -272,-52 -376,-156 -104,-103 -156,-229 -156,-375 0,-147 52,-272 156,-375 104,-104 229,-157 376,-157 72,0 141,15 207,43l-16 35c-61,-25 -125,-38 -191,-38 -136,0 -252,48 -348,144 -96,96 -144,212 -144,348 0,135 48,251 144,348 96,96 212,144 348,144 63,0 123,-11 180,-34l0 -442 -261 0 0 -39 301 0 0 507 -12 5c-66,28 -136,42 -208,42zm452 -105l161 0c118,0 218,-42 302,-125 83,-83 124,-183 124,-301 0,-118 -41,-218 -124,-301 -84,-84 -184,-125 -302,-125l-161 0 0 852zm-95 95l0 -1042 256 0c144,0 267,51 369,153 102,101 153,224 153,368 0,144 -51,266 -153,368 -102,102 -225,153 -369,153l-256 0zm1347 -956c-120,0 -222,43 -307,128 -86,85 -128,188 -128,308 0,120 42,222 128,308 85,85 187,127 307,127 120,0 223,-42 308,-127 85,-86 128,-188 128,-308 0,-120 -43,-223 -128,-308 -85,-85 -188,-128 -308,-128zm0 967c-146,0 -272,-52 -375,-156 -104,-104 -156,-229 -156,-375 0,-147 52,-272 156,-376 103,-104 229,-156 375,-156 147,0 272,52 376,156 104,104 156,229 156,376 0,146 -52,271 -156,375 -104,104 -229,156 -376,156zm1095 -1c-146,0 -271,-52 -375,-156 -104,-103 -156,-229 -156,-375 0,-146 52,-271 156,-375 104,-104 229,-156 375,-156 72,0 141,14 207,42l-38 88c-53,-23 -110,-34 -169,-34 -120,0 -222,42 -308,127 -85,85 -127,188 -127,308 0,120 42,223 127,308 86,85 188,127 308,127 49,0 96,-7 141,-23l0 -367 -217 0 0 -96 313 0 0 528 -29 12c-66,28 -136,42 -208,42z"/>
  <path class="fil2" d="M3682 2512l-15 -49 -76 0 -15 49 -48 0 74 -208 54 0 73 208 -47 0zm-26 -86c-14,-45 -22,-70 -23,-76 -2,-6 -3,-11 -4,-14 -3,12 -12,42 -27,90l54 0zm312 -19c0,34 -9,60 -29,78 -19,18 -47,27 -84,27l-59 0 0 -207 65 0c34,0 60,9 79,27 19,17 28,42 28,75zm-45 1c0,-45 -20,-67 -59,-67l-24 0 0 135 19 0c42,0 64,-23 64,-68zm318 0c0,35 -9,61 -26,80 -17,18 -41,27 -73,27 -32,0 -56,-9 -73,-27 -17,-19 -26,-45 -26,-80 0,-35 9,-61 26,-79 17,-18 41,-28 73,-28 32,0 57,10 73,28 17,18 26,45 26,79zm-152 0c0,24 5,41 13,53 9,11 22,17 40,17 35,0 53,-23 53,-70 0,-47 -18,-70 -53,-70 -17,0 -31,6 -39,18 -9,12 -14,29 -14,52zm307 104l-44 0 0 -171 -56 0 0 -36 156 0 0 36 -56 0 0 171zm249 0l-120 0 0 -207 120 0 0 36 -76 0 0 45 71 0 0 36 -71 0 0 54 76 0 0 36zm363 -207l0 134c0,15 -3,29 -10,40 -7,12 -17,21 -30,27 -13,6 -28,9 -46,9 -26,0 -47,-7 -62,-20 -15,-14 -22,-33 -22,-56l0 -134 44 0 0 127c0,16 3,28 9,35 7,8 18,11 32,11 15,0 25,-3 32,-11 6,-7 10,-19 10,-35l0 -127 43 0zm180 207l-50 -163 -1 0c2,34 2,56 2,67l0 96 -39 0 0 -207 60 0 49 159 1 0 52 -159 60 0 0 207 -41 0 0 -98c0,-5 0,-10 0,-16 0,-6 1,-22 2,-48l-1 0 -54 162 -40 0zm426 -174c-17,0 -30,7 -39,19 -9,13 -13,30 -13,52 0,46 17,70 52,70 14,0 32,-4 53,-11l0 37c-17,7 -36,10 -57,10 -31,0 -54,-9 -70,-27 -16,-19 -24,-45 -24,-79 0,-22 4,-41 12,-57 8,-16 19,-29 34,-37 15,-9 32,-13 52,-13 20,0 40,5 61,14l-15 36c-7,-4 -15,-7 -23,-9 -8,-3 -16,-5 -23,-5zm265 174l-15 -49 -76 0 -15 49 -47 0 73 -208 54 0 73 208 -47 0zm-26 -86c-14,-45 -21,-70 -23,-76 -2,-6 -3,-11 -4,-14 -3,12 -12,42 -27,90l54 0zm-50 -153c-3,0 -6,1 -9,4 -2,2 -4,6 -6,11l-21 0c1,-13 5,-24 12,-32 7,-8 16,-12 27,-12 4,0 8,1 11,3 4,1 8,3 11,5 4,2 8,3 11,5 4,1 7,2 11,2 2,0 5,-1 8,-3 3,-3 5,-7 6,-12l21 0c-1,14 -5,25 -12,32 -7,8 -16,12 -27,12 -3,0 -7,-1 -11,-2 -4,-2 -7,-4 -11,-5 -4,-2 -7,-4 -11,-6 -3,-1 -7,-2 -10,-2zm373 135c0,35 -8,61 -25,80 -18,18 -42,27 -74,27 -32,0 -56,-9 -73,-27 -17,-19 -26,-45 -26,-80 0,-35 9,-61 26,-79 17,-18 42,-28 73,-28 32,0 57,10 74,28 17,18 25,45 25,79zm-152 0c0,24 5,41 14,53 9,11 22,17 39,17 35,0 53,-23 53,-70 0,-47 -18,-70 -53,-70 -17,0 -30,6 -39,18 -9,12 -14,29 -14,52zm515 -103l0 134c0,15 -3,29 -10,40 -7,12 -17,21 -30,27 -13,6 -28,9 -46,9 -26,0 -47,-7 -62,-20 -15,-14 -22,-33 -22,-56l0 -134 44 0 0 127c0,16 3,28 9,35 7,8 18,11 32,11 15,0 25,-3 32,-11 6,-7 9,-19 9,-35l0 -127 44 0zm276 207l-56 0 -90 -157 -1 0c1,28 2,48 2,60l0 97 -39 0 0 -207 56 0 90 155 1 0c-2,-27 -2,-46 -2,-57l0 -98 39 0 0 207zm93 0l0 -207 44 0 0 207 -44 0zm256 -207l44 0 -70 207 -48 0 -71 -207 45 0 39 123c2,8 4,16 7,26 2,10 3,16 4,20 1,-9 5,-24 11,-46l39 -123zm231 207l-120 0 0 -207 120 0 0 36 -76 0 0 45 71 0 0 36 -71 0 0 54 76 0 0 36zm128 -115l14 0c14,0 25,-2 31,-7 7,-5 10,-12 10,-22 0,-10 -3,-17 -10,-21 -7,-4 -17,-6 -32,-6l-13 0 0 56zm0 36l0 79 -44 0 0 -207 61 0c28,0 49,5 62,15 14,10 21,26 21,47 0,12 -4,23 -11,33 -6,9 -16,16 -28,22 31,47 52,77 61,90l-49 0 -49 -79 -24 0zm312 22c0,19 -7,33 -21,44 -13,11 -32,16 -56,16 -22,0 -42,-4 -59,-12l0 -41c14,6 26,11 36,13 10,3 18,4 26,4 10,0 18,-2 23,-6 5,-3 7,-9 7,-16 0,-4 -1,-8 -3,-11 -2,-3 -6,-6 -10,-9 -4,-3 -13,-8 -27,-14 -13,-6 -22,-12 -28,-17 -7,-6 -12,-12 -16,-20 -3,-7 -5,-15 -5,-25 0,-19 6,-33 18,-43 13,-11 30,-16 52,-16 11,0 21,1 31,4 10,2 20,6 31,10l-15 35c-11,-5 -20,-8 -27,-10 -7,-2 -14,-3 -21,-3 -9,0 -15,2 -20,6 -4,4 -6,9 -6,15 0,4 1,8 2,11 2,2 5,5 9,8 4,3 13,8 28,15 19,9 33,18 40,27 7,10 11,21 11,35zm78 57l0 -207 44 0 0 207 -44 0zm217 0l-44 0 0 -171 -56 0 0 -36 157 0 0 36 -57 0 0 171zm236 0l-15 -49 -75 0 -15 49 -48 0 73 -208 54 0 74 208 -48 0zm-25 -86c-14,-45 -22,-70 -24,-76 -1,-6 -3,-11 -3,-14 -4,12 -13,42 -27,90l54 0zm-51 -138l0 -4c16,-19 27,-33 33,-42l49 0 0 2c-5,5 -13,13 -25,22 -12,10 -22,17 -28,22l-29 0zm235 109l14 0c14,0 24,-2 31,-7 6,-5 10,-12 10,-22 0,-10 -4,-17 -10,-21 -7,-4 -18,-6 -32,-6l-13 0 0 56zm0 36l0 79 -44 0 0 -207 60 0c28,0 49,5 63,15 13,10 20,26 20,47 0,12 -3,23 -10,33 -7,9 -16,16 -28,22 31,47 51,77 61,90l-49 0 -50 -79 -23 0zm189 79l0 -207 44 0 0 207 -44 0zm325 -104c0,35 -8,61 -25,80 -17,18 -42,27 -74,27 -31,0 -56,-9 -73,-27 -17,-19 -25,-45 -25,-80 0,-35 8,-61 25,-79 17,-18 42,-28 74,-28 32,0 56,10 73,28 17,18 25,45 25,79zm-151 0c0,24 4,41 13,53 9,11 22,17 39,17 36,0 53,-23 53,-70 0,-47 -17,-70 -52,-70 -18,0 -31,6 -40,18 -9,12 -13,29 -13,52zm268 35l-35 0 -7 -138 49 0 -7 138zm-42 49c0,-8 2,-14 6,-18 4,-4 10,-6 19,-6 7,0 14,2 18,6 4,4 6,10 6,18 0,7 -2,13 -6,18 -5,4 -11,6 -18,6 -8,0 -15,-2 -19,-6 -4,-4 -6,-10 -6,-18z"/>
 </g>
</svg>
